# xmcd
#
# Track frame offsets:
#	150
#	14460
#	28410
#	42292
#	56687
#	72185
#	86432
#	98492
#	111135
#	125015
#	132737
#	143815
#	156075
#	169330
#	177720
#	194490
#	210660
#	221900
#
# Disc length: 3078 seconds
#
# Revision: 0
# Processed by: cddbd v1.5.2PL0 Copyright (c) Steve Scherf et al.
# Submitted via: dBpowerAMP V4.0
#
DISCID=180c0412
DTITLE=Lizzie Miles - Lizzie Miles
DYEAR=1994
DGENRE=Blues
TTITLE0=Careless Love
TTITLE1=I Cried For You
TTITLE2=Basin Street Blues
TTITLE3=Basin Street Blues
TTITLE4=Ace In The Hole
TTITLE5=Some Of These Days
TTITLE6=Basin Street Blues
TTITLE7=Someday Sweetheart
TTITLE8=I Cried For You
TTITLE9=Baby Won't You Please Come Home
TTITLE10=I'm Going Home #1
TTITLE11=I'm Going Home #2
TTITLE12=St. Louis Blues
TTITLE13=After You've Gone
TTITLE14=Pallet On The Floor
TTITLE15=Baby Won't You Please Come Home
TTITLE16=Bill Bailey
TTITLE17=Darktown Strutters' Ball
EXTD=
EXTT0=
EXTT1=
EXTT2=
EXTT3=
EXTT4=
EXTT5=
EXTT6=
EXTT7=
EXTT8=
EXTT9=
EXTT10=
EXTT11=
EXTT12=
EXTT13=
EXTT14=
EXTT15=
EXTT16=
EXTT17=
PLAYORDER=
